{
  "accessors": [
    {
      "bufferView": 2,
      "componentType": 5126,
      "count": 65533,
      "max": [
        4.175000190734863,
        4.974999904632568,
        5.737500190734863
      ],
      "min": [
        -3.96875,
        -5.0749993324279785,
        0.5999999642372131
      ],
      "type": "VEC3"
    },
    {
      "bufferView": 2,
      "byteOffset": 786396,
      "componentType": 5126,
      "count": 65533,
      "max": [
        1.0,
        1.0,
        1.0
      ],
      "min": [
        -1.0,
        -1.0,
        -1.0
      ],
      "type": "VEC3"
    },
    {
      "bufferView": 1,
      "componentType": 5126,
      "count": 65533,
      "max": [
        0.9992600083351135,
        0.8352000117301941
      ],
      "min": [
        0.0004799999878741801,
        0.04149999842047691
      ],
      "type": "VEC2"
    },
    {
      "bufferView": 0,
      "componentType": 5125,
      "count": 103089,
      "type": "SCALAR"
    },
    {
      "bufferView": 2,
      "byteOffset": 1572792,
      "componentType": 5126,
      "count": 65534,
      "max": [
        4.300000190734863,
        5.699999809265137,
        5.800000190734863
      ],
      "min": [
        -4.900000095367432,
        -5.200000286102295,
        0.5999999642372131
      ],
      "type": "VEC3"
    },
    {
      "bufferView": 2,
      "byteOffset": 2359200,
      "componentType": 5126,
      "count": 65534,
      "max": [
        1.0,
        1.0,
        1.0
      ],
      "min": [
        -1.0,
        -1.0,
        -1.0
      ],
      "type": "VEC3"
    },
    {
      "bufferView": 1,
      "byteOffset": 524264,
      "componentType": 5126,
      "count": 65534,
      "max": [
        0.9992600083351135,
        0.7907699942588806
      ],
      "min": [
        0.0004799999878741801,
        0.38159000873565674
      ],
      "type": "VEC2"
    },
    {
      "bufferView": 0,
      "byteOffset": 412356,
      "componentType": 5125,
      "count": 98298,
      "type": "SCALAR"
    },
    {
      "bufferView": 2,
      "byteOffset": 3145608,
      "componentType": 5126,
      "count": 65534,
      "max": [
        4.300000190734863,
        5.199999809265137,
        5.618750095367432
      ],
      "min": [
        -4.599999904632568,
        -5.200000286102295,
        0.20000004768371582
      ],
      "type": "VEC3"
    },
    {
      "bufferView": 2,
      "byteOffset": 3932016,
      "componentType": 5126,
      "count": 65534,
      "max": [
        1.0,
        1.0,
        1.0
      ],
      "min": [
        -1.0,
        -1.0,
        -1.0
      ],
      "type": "VEC3"
    },
    {
      "bufferView": 1,
      "byteOffset": 1048536,
      "componentType": 5126,
      "count": 65534,
      "max": [
        0.9992600083351135,
        0.38231998682022095
      ],
      "min": [
        0.0004799999878741801,
        0.0427200011909008
      ],
      "type": "VEC2"
    },
    {
      "bufferView": 0,
      "byteOffset": 805548,
      "componentType": 5125,
      "count": 107676,
      "type": "SCALAR"
    },
    {
      "bufferView": 2,
      "byteOffset": 4718424,
      "componentType": 5126,
      "count": 65534,
      "max": [
        4.595310211181641,
        5.099999904632568,
        5.699999809265137
      ],
      "min": [
        -4.800000190734863,
        -5.200000286102295,
        -0.0
      ],
      "type": "VEC3"
    },
    {
      "bufferView": 2,
      "byteOffset": 5504832,
      "componentType": 5126,
      "count": 65534,
      "max": [
        1.0,
        1.0,
        1.0
      ],
      "min": [
        -1.0,
        -1.0,
        -1.0
      ],
      "type": "VEC3"
    },
    {
      "bufferView": 1,
      "byteOffset": 1572808,
      "componentType": 5126,
      "count": 65534,
      "max": [
        0.9992600083351135,
        0.34130001068115234
      ],
      "min": [
        0.0004799999878741801,
        0.04149999842047691
      ],
      "type": "VEC2"
    },
    {
      "bufferView": 0,
      "byteOffset": 1236252,
      "componentType": 5125,
      "count": 111276,
      "type": "SCALAR"
    },
    {
      "bufferView": 2,
      "byteOffset": 6291240,
      "componentType": 5126,
      "count": 65534,
      "max": [
        3.200000286102295,
        4.800000190734863,
        2.8000001907348633
      ],
      "min": [
        -1.4000000953674316,
        -4.900000095367432,
        1.3000000715255737
      ],
      "type": "VEC3"
    },
    {
      "bufferView": 2,
      "byteOffset": 7077648,
      "componentType": 5126,
      "count": 65534,
      "max": [
        1.0,
        1.0,
        1.0
      ],
      "min": [
        -1.0,
        -1.0,
        -1.0
      ],
      "type": "VEC3"
    },
    {
      "bufferView": 1,
      "byteOffset": 2097080,
      "componentType": 5126,
      "count": 65534,
      "max": [
        0.9992600083351135,
        0.303710013628006
      ],
      "min": [
        0.0004799999878741801,
        0.25512000918388367
      ],
      "type": "VEC2"
    },
    {
      "bufferView": 0,
      "byteOffset": 1681356,
      "componentType": 5125,
      "count": 98298,
      "type": "SCALAR"
    },
    {
      "bufferView": 2,
      "byteOffset": 7864056,
      "componentType": 5126,
      "count": 65534,
      "max": [
        4.900000095367432,
        5.699999809265137,
        5.600000381469727
      ],
      "min": [
        -4.900000095367432,
        -5.800000190734863,
        -0.0
      ],
      "type": "VEC3"
    },
    {
      "bufferView": 2,
      "byteOffset": 8650464,
      "componentType": 5126,
      "count": 65534,
      "max": [
        1.0,
        1.0,
        1.0
      ],
      "min": [
        -1.0,
        -1.0,
        -1.0
      ],
      "type": "VEC3"
    },
    {
      "bufferView": 1,
      "byteOffset": 2621352,
      "componentType": 5126,
      "count": 65534,
      "max": [
        0.9992600083351135,
        0.2558499872684479
      ],
      "min": [
        0.0004799999878741801,
        0.0004799999878741801
      ],
      "type": "VEC2"
    },
    {
      "bufferView": 0,
      "byteOffset": 2074548,
      "componentType": 5125,
      "count": 157365,
      "type": "SCALAR"
    },
    {
      "bufferView": 2,
      "byteOffset": 9436872,
      "componentType": 5126,
      "count": 65532,
      "max": [
        4.900000095367432,
        5.699999809265137,
        5.600000381469727
      ],
      "min": [
        -4.900000095367432,
        -5.800000190734863,
        -0.0
      ],
      "type": "VEC3"
    },
    {
      "bufferView": 2,
      "byteOffset": 10223256,
      "componentType": 5126,
      "count": 65532,
      "max": [
        1.0,
        1.0,
        1.0
      ],
      "min": [
        -1.0,
        -1.0,
        -1.0
      ],
      "type": "VEC3"
    },
    {
      "bufferView": 1,
      "byteOffset": 3145624,
      "componentType": 5126,
      "count": 65532,
      "max": [
        0.9992600083351135,
        0.1891999989748001
      ],
      "min": [
        0.0004799999878741801,
        0.0004799999878741801
      ],
      "type": "VEC2"
    },
    {
      "bufferView": 0,
      "byteOffset": 2704008,
      "componentType": 5125,
      "count": 146826,
      "type": "SCALAR"
    },
    {
      "bufferView": 2,
      "byteOffset": 11009640,
      "componentType": 5126,
      "count": 65533,
      "max": [
        4.900000095367432,
        5.699999809265137,
        6.099999904632568
      ],
      "min": [
        -4.900000095367432,
        -5.800000190734863,
        -0.0
      ],
      "type": "VEC3"
    },
    {
      "bufferView": 2,
      "byteOffset": 11796036,
      "componentType": 5126,
      "count": 65533,
      "max": [
        1.0,
        1.0,
        1.0
      ],
      "min": [
        -1.0,
        -1.0,
        -1.0
      ],
      "type": "VEC3"
    },
    {
      "bufferView": 1,
      "byteOffset": 3669880,
      "componentType": 5126,
      "count": 65533,
      "max": [
        0.9992600083351135,
        0.22851000726222992
      ],
      "min": [
        0.0004799999878741801,
        0.0004799999878741801
      ],
      "type": "VEC2"
    },
    {
      "bufferView": 0,
      "byteOffset": 3291312,
      "componentType": 5125,
      "count": 105489,
      "type": "SCALAR"
    },
    {
      "bufferView": 2,
      "byteOffset": 12582432,
      "componentType": 5126,
      "count": 65532,
      "max": [
        1.9000000953674316,
        4.800000190734863,
        5.099999904632568
      ],
      "min": [
        -4.362500190734863,
        -5.800000190734863,
        0.8999999761581421
      ],
      "type": "VEC3"
    },
    {
      "bufferView": 2,
      "byteOffset": 13368816,
      "componentType": 5126,
      "count": 65532,
      "max": [
        1.0,
        1.0,
        1.0
      ],
      "min": [
        -1.0,
        -1.0,
        -1.0
      ],
      "type": "VEC3"
    },
    {
      "bufferView": 1,
      "byteOffset": 4194144,
      "componentType": 5126,
      "count": 65532,
      "max": [
        0.9992600083351135,
        0.4489699900150299
      ],
      "min": [
        0.0004799999878741801,
        0.1269499957561493
      ],
      "type": "VEC2"
    },
    {
      "bufferView": 0,
      "byteOffset": 3713268,
      "componentType": 5125,
      "count": 98340,
      "type": "SCALAR"
    },
    {
      "bufferView": 2,
      "byteOffset": 14155200,
      "componentType": 5126,
      "count": 65534,
      "max": [
        1.9000000953674316,
        4.800000190734863,
        4.5
      ],
      "min": [
        -1.2999999523162842,
        -4.900000095367432,
        1.3000000715255737
      ],
      "type": "VEC3"
    },
    {
      "bufferView": 2,
      "byteOffset": 14941608,
      "componentType": 5126,
      "count": 65534,
      "max": [
        1.0,
        1.0,
        1.0
      ],
      "min": [
        -1.0,
        -1.0,
        -1.0
      ],
      "type": "VEC3"
    },
    {
      "bufferView": 1,
      "byteOffset": 4718400,
      "componentType": 5126,
      "count": 65534,
      "max": [
        0.9992600083351135,
        0.49682000279426575
      ],
      "min": [
        0.0004799999878741801,
        0.4482400119304657
      ],
      "type": "VEC2"
    },
    {
      "bufferView": 0,
      "byteOffset": 4106628,
      "componentType": 5125,
      "count": 98298,
      "type": "SCALAR"
    },
    {
      "bufferView": 2,
      "byteOffset": 15728016,
      "componentType": 5126,
      "count": 65534,
      "max": [
        3.9000003337860107,
        4.800000190734863,
        2.700000047683716
      ],
      "min": [
        1.7999999523162842,
        -4.900000095367432,
        1.3000000715255737
      ],
      "type": "VEC3"
    },
    {
      "bufferView": 2,
      "byteOffset": 16514424,
      "componentType": 5126,
      "count": 65534,
      "max": [
        1.0,
        1.0,
        1.0
      ],
      "min": [
        -1.0,
        -1.0,
        -1.0
      ],
      "type": "VEC3"
    },
    {
      "bufferView": 1,
      "byteOffset": 5242672,
      "componentType": 5126,
      "count": 65534,
      "max": [
        0.9992600083351135,
        0.5446699857711792
      ],
      "min": [
        0.0004799999878741801,
        0.49608999490737915
      ],
      "type": "VEC2"
    },
    {
      "bufferView": 0,
      "byteOffset": 4499820,
      "componentType": 5125,
      "count": 98298,
      "type": "SCALAR"
    },
    {
      "bufferView": 2,
      "byteOffset": 17300832,
      "componentType": 5126,
      "count": 65532,
      "max": [
        4.300000190734863,
        5.099999904632568,
        5.699999809265137
      ],
      "min": [
        -4.800000190734863,
        -5.200000286102295,
        0.29999998211860657
      ],
      "type": "VEC3"
    },
    {
      "bufferView": 2,
      "byteOffset": 18087216,
      "componentType": 5126,
      "count": 65532,
      "max": [
        1.0,
        1.0,
        1.0
      ],
      "min": [
        -1.0,
        -1.0,
        -1.0
      ],
      "type": "VEC3"
    },
    {
      "bufferView": 1,
      "byteOffset": 5766944,
      "componentType": 5126,
      "count": 65532,
      "max": [
        0.9992600083351135,
        0.580560028553009
      ],
      "min": [
        0.0004799999878741801,
        0.04149999842047691
      ],
      "type": "VEC2"
    },
    {
      "bufferView": 0,
      "byteOffset": 4893012,
      "componentType": 5125,
      "count": 108654,
      "type": "SCALAR"
    },
    {
      "bufferView": 2,
      "byteOffset": 18873600,
      "componentType": 5126,
      "count": 65534,
      "max": [
        4.0,
        5.099999904632568,
        5.699999809265137
      ],
      "min": [
        -4.09375,
        -4.900000095367432,
        0.29999998211860657
      ],
      "type": "VEC3"
    },
    {
      "bufferView": 2,
      "byteOffset": 19660008,
      "componentType": 5126,
      "count": 65534,
      "max": [
        1.0,
        1.0,
        1.0
      ],
      "min": [
        -1.0,
        -1.0,
        -1.0
      ],
      "type": "VEC3"
    },
    {
      "bufferView": 1,
      "byteOffset": 6291200,
      "componentType": 5126,
      "count": 65534,
      "max": [
        0.9992600083351135,
        0.6284099817276001
      ],
      "min": [
        0.0004799999878741801,
        0.5798299908638
      ],
      "type": "VEC2"
    },
    {
      "bufferView": 0,
      "byteOffset": 5327628,
      "componentType": 5125,
      "count": 98298,
      "type": "SCALAR"
    },
    {
      "bufferView": 2,
      "byteOffset": 20446416,
      "componentType": 5126,
      "count": 65532,
      "max": [
        4.300000190734863,
        5.099999904632568,
        5.699999809265137
      ],
      "min": [
        -4.800000190734863,
        -5.200000286102295,
        0.28888896107673645
      ],
      "type": "VEC3"
    },
    {
      "bufferView": 2,
      "byteOffset": 21232800,
      "componentType": 5126,
      "count": 65532,
      "max": [
        1.0,
        1.0,
        1.0
      ],
      "min": [
        -1.0,
        -1.0,
        -1.0
      ],
      "type": "VEC3"
    },
    {
      "bufferView": 1,
      "byteOffset": 6815472,
      "componentType": 5126,
      "count": 65532,
      "max": [
        0.9992600083351135,
        0.674560010433197
      ],
      "min": [
        0.0004799999878741801,
        0.06201000139117241
      ],
      "type": "VEC2"
    },
    {
      "bufferView": 0,
      "byteOffset": 5720820,
      "componentType": 5125,
      "count": 98466,
      "type": "SCALAR"
    },
    {
      "bufferView": 2,
      "byteOffset": 22019184,
      "componentType": 5126,
      "count": 65532,
      "max": [
        4.362500190734863,
        4.900000095367432,
        5.400000095367432
      ],
      "min": [
        -3.500000238418579,
        -4.900000095367432,
        0.5999999642372131
      ],
      "type": "VEC3"
    },
    {
      "bufferView": 2,
      "byteOffset": 22805568,
      "componentType": 5126,
      "count": 65532,
      "max": [
        1.0,
        1.0,
        1.0
      ],
      "min": [
        -1.0,
        -1.0,
        -1.0
      ],
      "type": "VEC3"
    },
    {
      "bufferView": 1,
      "byteOffset": 7339728,
      "componentType": 5126,
      "count": 65532,
      "max": [
        0.9992600083351135,
        0.7224100232124329
      ],
      "min": [
        0.0004799999878741801,
        0.0837400034070015
      ],
      "type": "VEC2"
    },
    {
      "bufferView": 0,
      "byteOffset": 6114684,
      "componentType": 5125,
      "count": 98466,
      "type": "SCALAR"
    },
    {
      "bufferView": 2,
      "byteOffset": 23591952,
      "componentType": 5126,
      "count": 57543,
      "max": [
        4.0,
        4.974999904632568,
        5.681250095367432
      ],
      "min": [
        -4.800000190734863,
        -5.0749993324279785,
        0.5000000596046448
      ],
      "type": "VEC3"
    },
    {
      "bufferView": 2,
      "byteOffset": 24282468,
      "componentType": 5126,
      "count": 57543,
      "max": [
        1.0,
        1.0,
        1.0
      ],
      "min": [
        -1.0,
        -1.0,
        -1.0
      ],
      "type": "VEC3"
    },
    {
      "bufferView": 1,
      "byteOffset": 7863984,
      "componentType": 5126,
      "count": 57543,
      "max": [
        0.9992600083351135,
        0.7651299834251404
      ],
      "min": [
        0.0004799999878741801,
        0.7216799855232239
      ],
      "type": "VEC2"
    },
    {
      "bufferView": 0,
      "byteOffset": 6508548,
      "componentType": 5125,
      "count": 86313,
      "type": "SCALAR"
    }
  ],
  "asset": {
    "extras": {
      "author": "patrix (https://sketchfab.com/patrix)",
      "license": "CC-BY-SA-4.0 (http://creativecommons.org/licenses/by-sa/4.0/)",
      "source": "https://sketchfab.com/3d-models/minecraft-castle-4b63724d7eab47079f905369cf8a0f98",
      "title": "Minecraft Castle"
    },
    "generator": "Sketchfab-14.49.0",
    "version": "2.0"
  },
  "bufferViews": [
    {
      "buffer": 0,
      "byteLength": 6853800,
      "name": "floatBufferViews",
      "target": 34963
    },
    {
      "buffer": 0,
      "byteLength": 8324328,
      "byteOffset": 6853800,
      "byteStride": 8,
      "name": "floatBufferViews",
      "target": 34962
    },
    {
      "buffer": 0,
      "byteLength": 24972984,
      "byteOffset": 15178128,
      "byteStride": 12,
      "name": "floatBufferViews",
      "target": 34962
    }
  ],
  "buffers": [
    {
      "byteLength": 40151112,
      "uri": "scene.bin"
    }
  ],
  "extensionsUsed": [
    "KHR_materials_unlit"
  ],
  "images": [
    {
      "uri": "textures/defaultMat_baseColor.jpeg"
    }
  ],
  "materials": [
    {
      "extensions": {
        "KHR_materials_unlit": {}
      },
      "name": "defaultMat",
      "pbrMetallicRoughness": {
        "baseColorTexture": {
          "index": 0
        },
        "metallicFactor": 0.0
      }
    }
  ],
  "meshes": [
    {
      "name": "Object_0",
      "primitives": [
        {
          "attributes": {
            "NORMAL": 1,
            "POSITION": 0,
            "TEXCOORD_0": 2
          },
          "indices": 3,
          "material": 0,
          "mode": 4
        }
      ]
    },
    {
      "name": "Object_1",
      "primitives": [
        {
          "attributes": {
            "NORMAL": 5,
            "POSITION": 4,
            "TEXCOORD_0": 6
          },
          "indices": 7,
          "material": 0,
          "mode": 4
        }
      ]
    },
    {
      "name": "Object_2",
      "primitives": [
        {
          "attributes": {
            "NORMAL": 9,
            "POSITION": 8,
            "TEXCOORD_0": 10
          },
          "indices": 11,
          "material": 0,
          "mode": 4
        }
      ]
    },
    {
      "name": "Object_3",
      "primitives": [
        {
          "attributes": {
            "NORMAL": 13,
            "POSITION": 12,
            "TEXCOORD_0": 14
          },
          "indices": 15,
          "material": 0,
          "mode": 4
        }
      ]
    },
    {
      "name": "Object_4",
      "primitives": [
        {
          "attributes": {
            "NORMAL": 17,
            "POSITION": 16,
            "TEXCOORD_0": 18
          },
          "indices": 19,
          "material": 0,
          "mode": 4
        }
      ]
    },
    {
      "name": "Object_5",
      "primitives": [
        {
          "attributes": {
            "NORMAL": 21,
            "POSITION": 20,
            "TEXCOORD_0": 22
          },
          "indices": 23,
          "material": 0,
          "mode": 4
        }
      ]
    },
    {
      "name": "Object_6",
      "primitives": [
        {
          "attributes": {
            "NORMAL": 25,
            "POSITION": 24,
            "TEXCOORD_0": 26
          },
          "indices": 27,
          "material": 0,
          "mode": 4
        }
      ]
    },
    {
      "name": "Object_7",
      "primitives": [
        {
          "attributes": {
            "NORMAL": 29,
            "POSITION": 28,
            "TEXCOORD_0": 30
          },
          "indices": 31,
          "material": 0,
          "mode": 4
        }
      ]
    },
    {
      "name": "Object_8",
      "primitives": [
        {
          "attributes": {
            "NORMAL": 33,
            "POSITION": 32,
            "TEXCOORD_0": 34
          },
          "indices": 35,
          "material": 0,
          "mode": 4
        }
      ]
    },
    {
      "name": "Object_9",
      "primitives": [
        {
          "attributes": {
            "NORMAL": 37,
            "POSITION": 36,
            "TEXCOORD_0": 38
          },
          "indices": 39,
          "material": 0,
          "mode": 4
        }
      ]
    },
    {
      "name": "Object_10",
      "primitives": [
        {
          "attributes": {
            "NORMAL": 41,
            "POSITION": 40,
            "TEXCOORD_0": 42
          },
          "indices": 43,
          "material": 0,
          "mode": 4
        }
      ]
    },
    {
      "name": "Object_11",
      "primitives": [
        {
          "attributes": {
            "NORMAL": 45,
            "POSITION": 44,
            "TEXCOORD_0": 46
          },
          "indices": 47,
          "material": 0,
          "mode": 4
        }
      ]
    },
    {
      "name": "Object_12",
      "primitives": [
        {
          "attributes": {
            "NORMAL": 49,
            "POSITION": 48,
            "TEXCOORD_0": 50
          },
          "indices": 51,
          "material": 0,
          "mode": 4
        }
      ]
    },
    {
      "name": "Object_13",
      "primitives": [
        {
          "attributes": {
            "NORMAL": 53,
            "POSITION": 52,
            "TEXCOORD_0": 54
          },
          "indices": 55,
          "material": 0,
          "mode": 4
        }
      ]
    },
    {
      "name": "Object_14",
      "primitives": [
        {
          "attributes": {
            "NORMAL": 57,
            "POSITION": 56,
            "TEXCOORD_0": 58
          },
          "indices": 59,
          "material": 0,
          "mode": 4
        }
      ]
    },
    {
      "name": "Object_15",
      "primitives": [
        {
          "attributes": {
            "NORMAL": 61,
            "POSITION": 60,
            "TEXCOORD_0": 62
          },
          "indices": 63,
          "material": 0,
          "mode": 4
        }
      ]
    }
  ],
  "nodes": [
    {
      "children": [
        1
      ],
      "matrix": [
        0.0,
        1.1102230246251565e-15,
        -5.0,
        0.0,
        -5.0,
        0.0,
        0.0,
        0.0,
        0.0,
        5.0,
        1.1102230246251565e-15,
        0.0,
        0.0,
        0.0,
        0.0,
        1.0
      ],
      "name": "Sketchfab_model"
    },
    {
      "children": [
        2,
        3,
        4,
        5,
        6,
        7,
        8,
        9,
        10,
        11,
        12,
        13,
        14,
        15,
        16,
        17
      ],
      "name": "884ea104ea874de19dc097e602877a3b.obj.cleaner.materialmerger.gles"
    },
    {
      "mesh": 0,
      "name": "Object_2"
    },
    {
      "mesh": 1,
      "name": "Object_3"
    },
    {
      "mesh": 2,
      "name": "Object_4"
    },
    {
      "mesh": 3,
      "name": "Object_5"
    },
    {
      "mesh": 4,
      "name": "Object_6"
    },
    {
      "mesh": 5,
      "name": "Object_7"
    },
    {
      "mesh": 6,
      "name": "Object_8"
    },
    {
      "mesh": 7,
      "name": "Object_9"
    },
    {
      "mesh": 8,
      "name": "Object_10"
    },
    {
      "mesh": 9,
      "name": "Object_11"
    },
    {
      "mesh": 10,
      "name": "Object_12"
    },
    {
      "mesh": 11,
      "name": "Object_13"
    },
    {
      "mesh": 12,
      "name": "Object_14"
    },
    {
      "mesh": 13,
      "name": "Object_15"
    },
    {
      "mesh": 14,
      "name": "Object_16"
    },
    {
      "mesh": 15,
      "name": "Object_17"
    }
  ],
  "samplers": [
    {
      "magFilter": 9728,
      "minFilter": 9728,
      "wrapS": 10497,
      "wrapT": 10497
    }
  ],
  "scene": 0,
  "scenes": [
    {
      "name": "Sketchfab_Scene",
      "nodes": [
        0
      ]
    }
  ],
  "textures": [
    {
      "sampler": 0,
      "source": 0
    }
  ]
}
